<?xml version="1.0" encoding="UTF-8" standalone="no"?>
<!-- Created with Inkscape (http://www.inkscape.org/) -->

<svg
   width="512"
   height="512"
   viewBox="0 0 135.46666 135.46667"
   version="1.1"
   id="svg5"
   inkscape:version="1.2.2 (b0a8486541, 2022-12-01)"
   sodipodi:docname="user-trash-full.svg"
   inkscape:export-filename="../../64x64/places/user-trash-full.png"
   inkscape:export-xdpi="12"
   inkscape:export-ydpi="12"
   xmlns:inkscape="http://www.inkscape.org/namespaces/inkscape"
   xmlns:sodipodi="http://sodipodi.sourceforge.net/DTD/sodipodi-0.dtd"
   xmlns="http://www.w3.org/2000/svg"
   xmlns:svg="http://www.w3.org/2000/svg"
   xmlns:rdf="http://www.w3.org/1999/02/22-rdf-syntax-ns#"
   xmlns:cc="http://creativecommons.org/ns#"
   xmlns:dc="http://purl.org/dc/elements/1.1/">
  <title
     id="title1538">Trashcan full</title>
  <sodipodi:namedview
     id="namedview7"
     pagecolor="#ffffff"
     bordercolor="#666666"
     borderopacity="1.0"
     inkscape:showpageshadow="2"
     inkscape:pageopacity="0.0"
     inkscape:pagecheckerboard="0"
     inkscape:deskcolor="#d1d1d1"
     inkscape:document-units="mm"
     showgrid="false"
     inkscape:zoom="3.2064537"
     inkscape:cx="254.01895"
     inkscape:cy="95.120662"
     inkscape:window-width="1366"
     inkscape:window-height="699"
     inkscape:window-x="0"
     inkscape:window-y="0"
     inkscape:window-maximized="1"
     inkscape:current-layer="layer5" />
  <defs
     id="defs2" />
  <g
     inkscape:groupmode="layer"
     id="layer5"
     inkscape:label="trash"
     style="display:inline">
    <path
       style="fill:#e0e0e0;fill-opacity:1;stroke:#e0e0e0;stroke-width:0.264583px;stroke-linecap:butt;stroke-linejoin:miter;stroke-opacity:1"
       d="m 32.195309,23.346887 9.904119,0.310886 -0.922263,7.175416 6.125334,-7.437719 8.977259,3.27144 -1.471919,-5.114949 4.350761,-4.095374 -8.549865,0.86792 2.664161,-5.359832 -6.557984,1.761444 -7.80143,-2.077887 2.029304,4.400656 -7.441657,1.721396 8.061412,1.353745 z"
       id="trash"
       sodipodi:nodetypes="ccccccccccccccc" />
    <path
       style="fill:#e0e0e0;fill-opacity:1;stroke:#e0e0e0;stroke-width:0.264583px;stroke-linecap:butt;stroke-linejoin:miter;stroke-opacity:1"
       d="m 60.467503,12.883131 9.904119,0.310886 -0.922263,7.175416 6.125334,-7.437719 8.977259,3.27144 -1.471919,-5.114949 4.350761,-4.0953736 -8.549865,0.86792 2.664161,-5.3598315 -6.557984,1.761444 -7.80143,-2.077887 2.029304,4.4006555 -7.441657,1.721396 8.061412,1.353745 z"
       id="trash-2"
       sodipodi:nodetypes="ccccccccccccccc" />
    <path
       style="fill:#d3d3d3;fill-opacity:1;stroke:#d4d4d4;stroke-width:0.264583px;stroke-linecap:butt;stroke-linejoin:miter;stroke-opacity:1"
       d="m 88.624128,7.7715857 -5.017469,8.5447783 -5.856677,-4.246941 3.594387,8.939786 -7.172192,6.312936 5.19496,1.158289 1.51063,5.780935 3.333972,-7.920739 3.428523,4.906198 1.595435,-6.600335 5.561225,-5.852581 -4.834979,-0.326841 2.053914,-7.356827 -5.050127,6.427691 z"
       id="trash-3"
       sodipodi:nodetypes="ccccccccccccccc" />
    <path
       style="fill:#cdcdcd;fill-opacity:1;stroke:#cccccc;stroke-width:0.264583px;stroke-linecap:butt;stroke-linejoin:miter;stroke-opacity:1"
       d="m 54.435391,25.231531 9.904119,0.310886 -0.922263,7.175416 6.125334,-7.437719 8.977259,3.27144 -1.471919,-5.114949 4.350761,-4.095374 -8.549865,0.86792 2.664161,-5.359832 -6.557984,1.761444 -7.80143,-2.077887 2.029304,4.400656 -7.441657,1.721396 8.061412,1.353745 z"
       id="trash-4"
       sodipodi:nodetypes="ccccccccccccccc" />
    <path
       style="fill:#cdcdcd;fill-opacity:1;stroke:#cccccc;stroke-width:0.264583px;stroke-linecap:butt;stroke-linejoin:miter;stroke-opacity:1"
       d="m 27.391705,11.703418 6.216557,7.716388 -6.044538,3.975013 9.633274,-0.198543 3.366667,8.941983 2.921565,-4.449012 5.941461,0.632658 -6.228588,-5.920994 5.801953,-1.470675 -5.608782,-3.827715 -3.506128,-7.272344 -2.016531,4.406524 -6.154102,-4.5242126 4.22488,6.9978126 z"
       id="trash-5"
       sodipodi:nodetypes="ccccccccccccccc" />
    <path
       style="fill:#bfbfbf;fill-opacity:1;stroke:#c0c0c0;stroke-width:0.264583px;stroke-linecap:butt;stroke-linejoin:miter;stroke-opacity:1"
       d="m 44.997117,17.132893 9.904119,0.310886 -0.922263,7.175416 6.125334,-7.437719 8.977259,3.27144 -1.471919,-5.114949 4.350761,-4.095374 -8.549865,0.86792 2.664161,-5.3598322 -6.557984,1.761444 -7.80143,-2.077887 2.029304,4.4006562 -7.441657,1.721396 8.061412,1.353745 z"
       id="trash-6"
       sodipodi:nodetypes="ccccccccccccccc" />
  </g>
  <g
     inkscape:label="trashcan"
     inkscape:groupmode="layer"
     id="layer1"
     style="display:inline">
    <rect
       style="fill:#c8b7b7;stroke-width:0.264583"
       id="body"
       width="71.054344"
       height="96.083565"
       x="28.02578"
       y="21.981968"
       ry="8.0369987" />
    <rect
       style="display:inline;fill:#ac9393;stroke-width:0.196634"
       id="shadow-body"
       width="39.244888"
       height="96.083565"
       x="60.055588"
       y="22.193832"
       ry="8.0369987" />
    <rect
       style="display:inline;fill:#c8b7b7;stroke-width:0.233688"
       id="body-pt2"
       width="55.42923"
       height="96.083565"
       x="28.180986"
       y="22.063179"
       ry="8.0369987" />
    <g
       inkscape:groupmode="layer"
       id="layer4"
       inkscape:label="details"
       style="display:inline" />
    <rect
       style="fill:#e3dbdb;fill-opacity:1;stroke-width:0.485226"
       id="rect2271"
       width="9.0481005"
       height="71.963058"
       x="35.733482"
       y="38.293446"
       ry="4.7870026" />
    <rect
       style="display:inline;fill:#e3dbdb;fill-opacity:1;stroke-width:0.458936"
       id="rect2271-5"
       width="9.0481005"
       height="64.376328"
       x="55.3596"
       y="42.449375"
       ry="4.282331" />
    <rect
       style="display:inline;fill:#e3dbdb;fill-opacity:1;stroke-width:0.458936"
       id="rect2271-5-6"
       width="9.0481005"
       height="64.376328"
       x="71.800095"
       y="42.377586"
       ry="4.282331" />
    <rect
       style="display:inline;fill:#c8b7b7;fill-opacity:1;stroke-width:0.492346"
       id="rect2271-5-3"
       width="9.0481005"
       height="74.090591"
       x="87.980637"
       y="37.033764"
       ry="4.9285264" />
  </g>
  <g
     inkscape:groupmode="layer"
     id="layer2"
     inkscape:label="lid"
     style="display:inline"
     transform="matrix(0.266592,-0.93995951,0.96205418,0.2728585,-20.095247,131.93284)">
    <rect
       style="display:inline;fill:#baa5a5;fill-opacity:1;stroke-width:0.0636991"
       id="lid-pt2"
       width="80.945877"
       height="4.8886032"
       x="24.57947"
       y="20.96578"
       ry="0.15242249" />
    <ellipse
       style="display:inline;fill:#baa5a5;fill-opacity:1;stroke-width:0.264583"
       id="shadow-lid"
       ry="7.9698391"
       rx="40.480412"
       cy="25.456038"
       cx="65.013237" />
    <ellipse
       style="display:inline;fill:#e3dbdb;stroke-width:0.264583"
       id="lid"
       ry="7.9698391"
       rx="40.480412"
       cy="21.111496"
       cx="65.066399" />
    <g
       inkscape:groupmode="layer"
       id="layer3"
       inkscape:label="dag"
       transform="translate(-2.7247673,-0.42870778)">
      <rect
         style="display:inline;fill:#c8b7b7;fill-opacity:1;stroke-width:0.274399"
         id="rect171-3"
         width="2.3240328"
         height="7.9014897"
         x="86.282249"
         y="14.075146"
         ry="0.87724835"
         rx="0" />
      <rect
         style="display:inline;fill:#c8b7b7;fill-opacity:1;stroke-width:0.274399"
         id="rect171-3-7"
         width="2.3240328"
         height="7.9014897"
         x="45.141296"
         y="14.085208"
         ry="0.87724835"
         rx="0" />
      <rect
         style="display:inline;fill:#c8b7b7;fill-opacity:1;stroke-width:0.642677"
         id="dag"
         width="2.3242114"
         height="43.340931"
         x="-15.694173"
         y="44.984711"
         ry="4.8118467"
         rx="0"
         transform="matrix(-0.01248449,-0.99992207,0.99999998,-1.7678075e-4,0,0)" />
    </g>
  </g>
  <metadata
     id="metadata1536">
    <rdf:RDF>
      <cc:Work
         rdf:about="">
        <dc:title>Trashcan full</dc:title>
        <dc:date>15/11/2023</dc:date>
        <dc:creator>
          <cc:Agent>
            <dc:title>Isaac David Orozco Delgado (Reisy RedPanda)</dc:title>
          </cc:Agent>
        </dc:creator>
      </cc:Work>
    </rdf:RDF>
  </metadata>
</svg>
