<?xml version="1.0" encoding="UTF-8" standalone="no"?>
<!-- Created with Inkscape (http://www.inkscape.org/) -->

<svg
   width="512"
   height="512"
   viewBox="0 0 135.46666 135.46667"
   version="1.1"
   id="svg5"
   inkscape:version="1.2.2 (b0a8486541, 2022-12-01)"
   sodipodi:docname="folder-publicshare.svg"
   inkscape:export-filename="../../64x64/places/folder-publicshare.png"
   inkscape:export-xdpi="12"
   inkscape:export-ydpi="12"
   xmlns:inkscape="http://www.inkscape.org/namespaces/inkscape"
   xmlns:sodipodi="http://sodipodi.sourceforge.net/DTD/sodipodi-0.dtd"
   xmlns="http://www.w3.org/2000/svg"
   xmlns:svg="http://www.w3.org/2000/svg"
   xmlns:rdf="http://www.w3.org/1999/02/22-rdf-syntax-ns#"
   xmlns:cc="http://creativecommons.org/ns#"
   xmlns:dc="http://purl.org/dc/elements/1.1/">
  <title
     id="title1528">Folder comunism</title>
  <sodipodi:namedview
     id="namedview7"
     pagecolor="#ffffff"
     bordercolor="#666666"
     borderopacity="1.0"
     inkscape:showpageshadow="2"
     inkscape:pageopacity="0.0"
     inkscape:pagecheckerboard="0"
     inkscape:deskcolor="#d1d1d1"
     inkscape:document-units="mm"
     showgrid="false"
     inkscape:zoom="1.8208275"
     inkscape:cx="250.71019"
     inkscape:cy="276.79723"
     inkscape:window-width="1366"
     inkscape:window-height="699"
     inkscape:window-x="0"
     inkscape:window-y="0"
     inkscape:window-maximized="1"
     inkscape:current-layer="layer1" />
  <defs
     id="defs2" />
  <g
     inkscape:groupmode="layer"
     id="layer5"
     inkscape:label="face 2"
     transform="translate(0.93386693,-5.231476)"
     style="display:inline;fill:#ffff32;fill-opacity:1">
    <rect
       style="fill:#ffff32;fill-opacity:1;stroke-width:0.505544"
       id="face2-pt2"
       width="107.63847"
       height="73.893669"
       x="13.536472"
       y="43.460163"
       rx="6.0164781"
       ry="11.127864" />
    <rect
       style="fill:#ffff32;fill-opacity:1;stroke-width:0.264583"
       id="face2-pt1"
       width="39.634453"
       height="42.216362"
       x="81.42289"
       y="37.62426"
       rx="4.282331"
       ry="4.282331" />
  </g>
  <g
     inkscape:groupmode="layer"
     id="layer4"
     inkscape:label="face 1"
     style="display:inline;fill:#ffff5b;fill-opacity:1"
     transform="matrix(1,0,0,0.85282054,69.019144,13.67495)">
    <rect
       style="fill:#ffff5b;fill-opacity:1;stroke-width:0.520015"
       id="face1-pt2"
       width="107.63847"
       height="78.184624"
       x="-54.392902"
       y="36.673016"
       rx="6.0164781"
       ry="11.774051" />
    <rect
       style="fill:#ffff5b;fill-opacity:1;stroke-width:0.264583"
       id="face1-pt1"
       width="39.634453"
       height="42.216362"
       x="-54.239876"
       y="28.788363"
       rx="4.282331"
       ry="4.282331" />
  </g>
  <g
     inkscape:groupmode="layer"
     id="layer1"
     inkscape:label="icon"
     style="fill:#cece0a;fill-opacity:1">
    <rect
       style="fill:#cece0a;fill-opacity:1;stroke-width:0.176313"
       id="share"
       width="23.499462"
       height="9.0190353"
       x="86.18647"
       y="45.448425"
       rx="1.9191118"
       ry="1.9016304"
       transform="rotate(28.324502)" />
    <rect
       style="fill:#cece0a;fill-opacity:1;stroke-width:0.162168"
       id="share-pt2"
       width="21.606459"
       height="8.2984505"
       x="-39.691292"
       y="91.059265"
       rx="1.7645174"
       ry="1.7496977"
       transform="matrix(-0.8334997,0.55251991,0.39154582,0.92015861,0,0)" />
    <path
       style="fill:#cccc0a;stroke:#cccc0a;stroke-width:0.264583;fill-opacity:1"
       id="share-pt3"
       sodipodi:type="arc"
       sodipodi:cx="49.016376"
       sodipodi:cy="81.143654"
       sodipodi:rx="7.1088076"
       sodipodi:ry="8.2221842"
       sodipodi:start="0"
       sodipodi:end="6.2740572"
       sodipodi:arc-type="slice"
       d="m 56.125184,81.143654 a 7.1088076,8.2221842 0 0 1 -7.092585,8.222163 7.1088076,8.2221842 0 0 1 -7.124956,-8.184637 7.1088076,8.2221842 0 0 1 7.060066,-8.259518 7.1088076,8.2221842 0 0 1 7.157179,8.14694 l -7.108512,0.07505 z" />
    <path
       style="fill:#cccc0a;fill-opacity:1;stroke:#cccc0a;stroke-width:0.264583"
       id="share-pt4"
       sodipodi:type="arc"
       sodipodi:cx="71.293755"
       sodipodi:cy="66.23838"
       sodipodi:rx="7.1088076"
       sodipodi:ry="8.2221842"
       sodipodi:start="0"
       sodipodi:end="6.2740572"
       sodipodi:arc-type="slice"
       d="m 78.402562,66.23838 a 7.1088076,8.2221842 0 0 1 -7.092585,8.222163 7.1088076,8.2221842 0 0 1 -7.124956,-8.184636 7.1088076,8.2221842 0 0 1 7.060066,-8.259518 7.1088076,8.2221842 0 0 1 7.157179,8.146939 l -7.108511,0.07505 z" />
    <path
       style="fill:#cccc0a;fill-opacity:1;stroke:#cccc0a;stroke-width:0.264583"
       id="share-pt5"
       sodipodi:type="arc"
       sodipodi:cx="71.8591"
       sodipodi:cy="95.724266"
       sodipodi:rx="7.1088076"
       sodipodi:ry="8.2221842"
       sodipodi:start="0"
       sodipodi:end="6.2740572"
       sodipodi:arc-type="slice"
       d="m 78.967908,95.724266 a 7.1088076,8.2221842 0 0 1 -7.092585,8.222164 7.1088076,8.2221842 0 0 1 -7.124956,-8.184638 7.1088076,8.2221842 0 0 1 7.060066,-8.259517 7.1088076,8.2221842 0 0 1 7.157179,8.146939 l -7.108512,0.07505 z" />
  </g>
  <metadata
     id="metadata1524">
    <rdf:RDF>
      <cc:Work
         rdf:about="">
        <dc:creator>
          <cc:Agent>
            <dc:title>Isaac David Orozco Delgado (Reisy RedPanda)</dc:title>
          </cc:Agent>
        </dc:creator>
        <dc:date>15/11/2023</dc:date>
        <dc:title>Folder comunism</dc:title>
      </cc:Work>
    </rdf:RDF>
  </metadata>
</svg>
